<svg xmlns="http://www.w3.org/2000/svg" version="1.1" xmlns:xlink="http://www.w3.org/1999/xlink" xmlns:svgjs="http://svgjs.dev/svgjs" viewBox="0 0 600 600" opacity="1"><path d="M477.6026364057734 246.7418323637483C495.41700560743357 218.5981212736604 412.3331534752721 75.63405699346833 377.9020138471796 75.18495522751783C343.4708742190872 74.73585346156733 254.3990282107864 215.45440891200673 271.01579863721867 244.04722176804518C287.6325690636509 272.64003462408357 459.7882672041134 274.8855434538362 477.6026364057734 246.7418323637483C495.41700560743357 218.5981212736604 412.3331534752721 75.63405699346833 377.9020138471796 75.18495522751783 " fill="url(&quot;#SvgjsLinearGradient1004&quot;)" stroke-width="0" stroke="hsl(340, 45%, 30%)" transform="matrix(-1.0000000000000013,-9.992007221626409e-16,9.992007221626409e-16,-1.0000000000000013,676.084769027325,518.2069790514533)"></path><path d="M226.68147618279903 180.59308341568925C244.49584538445868 152.44937232560147 161.41199325229803 9.485308045409454 126.98085362420537 9.036206279458952C92.5497139961127 8.58710451350845 3.4778679878119476 149.30565996394768 20.09463841424426 177.898472819986C36.71140884067657 206.4912856760246 208.86710698113893 208.73679450577714 226.68147618279903 180.59308341568925C244.49584538445868 152.44937232560147 161.41199325229803 9.485308045409454 126.98085362420537 9.036206279458952 " fill-opacity="1" fill="url(&quot;#SvgjsLinearGradient1002&quot;)" opacity="1" stroke-opacity="1" stroke-width="0" stroke="hsl(340, 45%, 30%)" transform="matrix(1.0000000000000013,1.6653345369377348e-16,-1.6653345369377348e-16,1.0000000000000013,181.10303435343064,50.694318032812305)"></path><defs><linearGradient id="SvgjsLinearGradient1002"><stop stop-color="hsl(162, 100%, 58%)" offset="0"></stop><stop stop-color="hsl(270, 73%, 53%)" offset="1"></stop></linearGradient><radialGradient id="SvgjsRadialGradient1003"><stop stop-color="hsl(105, 69%, 40%)" offset="0"></stop><stop stop-color="hsl(105, 69%, 60%)" offset="1"></stop></radialGradient><linearGradient id="SvgjsLinearGradient1004"><stop stop-color="hsl(37, 99%, 67%)" offset="0"></stop><stop stop-color="hsl(316, 73%, 52%)" offset="1"></stop></linearGradient><radialGradient id="SvgjsRadialGradient1005"><stop stop-color="hsl(184, 74%, 44%)" offset="0"></stop><stop stop-color="hsl(332, 87%, 70%)" offset="1"></stop></radialGradient></defs></svg>